<svg width="282" height="282" viewBox="0 0 282 282" fill="none" xmlns="http://www.w3.org/2000/svg">
<path d="M138.768 155.201L163.87 202.431C175.773 224.826 199.457 231.197 216.77 216.66L191.667 169.431C179.765 147.035 156.081 140.664 138.768 155.201Z" fill="#76A9FA"/>
<path d="M84.1322 171.057L66.2889 227.929C84.8316 237.12 105.296 227.257 111.997 205.898L129.84 149.026C112.065 140.414 92.7125 151.118 84.1322 171.057Z" fill="#A4CAFE"/>
<path d="M56 75.8965L81.6854 118.604C93.8649 138.855 115.292 144.294 129.544 130.753L103.858 88.0456C91.6787 67.7944 70.2517 62.3551 56 75.8965Z" fill="#1C64F2"/>
<path d="M139.045 134.875L174.418 106.689C191.192 93.3233 197.227 67.4951 187.899 49L152.526 77.1863C135.752 90.5518 129.717 116.38 139.045 134.875Z" fill="#1C64F2"/>
</svg>
