<svg width="266" height="165" viewBox="0 0 266 165" fill="none" xmlns="http://www.w3.org/2000/svg">
<g id="Frame 2">
<path id="x-store" d="M69.2031 96.75C68.4219 98 67.6094 99.1719 66.7656 100.266C65.9219 101.328 65.0938 102.266 64.2812 103.078C63.4688 103.859 62.6875 104.484 61.9375 104.953C61.2188 105.422 60.5781 105.656 60.0156 105.656C59.3281 105.656 58.6562 105.516 58 105.234C57.3438 104.953 56.75 104.547 56.2188 104.016C55.7188 103.484 55.3125 102.828 55 102.047C54.6875 101.234 54.5312 100.328 54.5312 99.3281V92.9062L51.8594 97.125C51.3906 97.8438 50.8594 98.6875 50.2656 99.6562C49.6719 100.594 49.0312 101.484 48.3438 102.328C47.6562 103.172 46.9375 103.891 46.1875 104.484C45.4062 105.078 44.6094 105.375 43.7969 105.375C43.4531 105.375 43.0781 105.281 42.6719 105.094C42.2656 104.906 41.8906 104.641 41.5469 104.297C41.1719 103.922 40.8594 103.5 40.6094 103.031C40.3594 102.531 40.2344 102 40.2344 101.438C40.2344 99.8438 40.6406 98.4531 41.4531 97.2656C42.2344 96.0781 43.1094 95.0781 44.0781 94.2656C45.2031 93.3281 46.4844 92.5156 47.9219 91.8281L48.2969 92.1562C47.2969 93.5938 46.6406 94.9219 46.3281 96.1406C46.0156 97.3594 45.8438 98.3281 45.8125 99.0469C45.8125 99.8281 46.0312 100.219 46.4688 100.219C46.6875 100.25 47.0312 100.031 47.5 99.5625C47.9688 99.0625 48.5469 98.3594 49.2344 97.4531C49.9531 96.5469 50.75 95.4531 51.625 94.1719C52.5312 92.8906 53.5 91.4688 54.5312 89.9062V76.5C54.5312 75.2188 54.4531 74.25 54.2969 73.5938C54.1719 72.9062 53.9375 72.5625 53.5938 72.5625C53.4062 72.5625 53.1562 72.6562 52.8438 72.8438C52.5625 73 52.2344 73.2344 51.8594 73.5469C51.4844 73.8594 51.0938 74.2188 50.6875 74.625C50.2812 75 49.9062 75.3906 49.5625 75.7969L48.2969 74.9531C48.9531 73.9844 49.6562 73.1094 50.4062 72.3281C51.1562 71.5156 51.8906 70.8281 52.6094 70.2656C53.3281 69.7031 54 69.2812 54.625 69C55.25 68.6875 55.7969 68.5312 56.2656 68.5312C56.7969 68.5312 57.3594 68.6562 57.9531 68.9062C58.5781 69.125 59.1562 69.4531 59.6875 69.8906C60.2188 70.2969 60.6562 70.7969 61 71.3906C61.375 71.9844 61.5625 72.6562 61.5625 73.4062V80.1562C62.25 78.9062 63 77.5938 63.8125 76.2188C64.6562 74.8438 65.5156 73.5781 66.3906 72.4219C67.2656 71.2656 68.1562 70.3125 69.0625 69.5625C69.9688 68.8125 70.8594 68.4375 71.7344 68.4375C72.2031 68.4375 72.6562 68.5625 73.0938 68.8125C73.5312 69.0312 73.9219 69.3438 74.2656 69.75C74.6406 70.1562 74.9375 70.6094 75.1562 71.1094C75.375 71.6094 75.4844 72.125 75.4844 72.6562C75.4844 73.5 75.2969 74.3281 74.9219 75.1406C74.5469 75.9219 74.0781 76.6562 73.5156 77.3438C72.9531 78 72.3438 78.6094 71.6875 79.1719C71.0312 79.7344 70.4062 80.2188 69.8125 80.625C69.25 81 68.7656 81.2969 68.3594 81.5156C67.9844 81.7344 67.7969 81.8438 67.7969 81.8438L67.4219 81.5625C67.9219 80.8125 68.3281 80.0625 68.6406 79.3125C68.9844 78.5312 69.25 77.7969 69.4375 77.1094C69.625 76.3906 69.75 75.7344 69.8125 75.1406C69.9062 74.5469 69.9688 74.0625 70 73.6875C70 73.3125 69.9688 73.0312 69.9062 72.8438C69.8438 72.6562 69.6875 72.5312 69.4375 72.4688C69.2188 72.4688 68.8594 72.75 68.3594 73.3125C67.8906 73.8438 67.3125 74.5938 66.625 75.5625C65.9688 76.5 65.2188 77.625 64.375 78.9375C63.5312 80.2188 62.625 81.6094 61.6562 83.1094C61.7188 84.3594 61.75 85.6094 61.75 86.8594C61.75 88.1094 61.75 89.3281 61.75 90.5156C61.75 91.6719 61.7344 92.8281 61.7031 93.9844C61.7031 95.1406 61.7188 96.1875 61.75 97.125C61.8125 98.0312 61.9219 98.7812 62.0781 99.375C62.2656 99.9375 62.5312 100.219 62.875 100.219C63.375 100.156 64.1094 99.7656 65.0781 99.0469C66.0781 98.3281 67.0781 97.2656 68.0781 95.8594L69.2031 96.75ZM77.9219 87.1406L79.9375 81H100.094L98.0781 87.1406H77.9219ZM121.562 68.1562C122.219 68.1562 122.781 68.3906 123.25 68.8594C123.719 69.2969 124.094 69.875 124.375 70.5938C124.656 71.3125 124.812 72.1406 124.844 73.0781C124.906 74.0156 124.828 74.9531 124.609 75.8906C124.359 77.0156 123.859 77.9375 123.109 78.6562C122.391 79.3438 121.625 79.8906 120.812 80.2969C119.875 80.7656 118.844 81.125 117.719 81.375C118.375 80.125 118.781 79.0625 118.938 78.1875C119.125 77.3125 119.219 76.4844 119.219 75.7031C119.219 75.3906 119.188 75.0781 119.125 74.7656C119.094 74.4219 119.016 74.1094 118.891 73.8281C118.797 73.5469 118.656 73.3125 118.469 73.125C118.281 72.9375 118.062 72.8438 117.812 72.8438C117.531 72.8438 117.188 72.9531 116.781 73.1719C116.406 73.3594 116.031 73.6406 115.656 74.0156C115.312 74.3906 115.016 74.8438 114.766 75.375C114.547 75.875 114.438 76.4375 114.438 77.0625C114.438 77.3125 114.562 77.8125 114.812 78.5625C115.062 79.3125 115.359 80.2344 115.703 81.3281C116.078 82.3906 116.469 83.5625 116.875 84.8438C117.312 86.125 117.703 87.4062 118.047 88.6875C118.422 89.9688 118.734 91.2031 118.984 92.3906C119.234 93.5781 119.359 94.6094 119.359 95.4844C119.359 96.3594 119.078 97.2344 118.516 98.1094C117.953 98.9531 117.25 99.7656 116.406 100.547C115.562 101.328 114.625 102.062 113.594 102.75C112.594 103.406 111.625 103.984 110.688 104.484C109.781 104.984 108.984 105.375 108.297 105.656C107.641 105.938 107.219 106.078 107.031 106.078C106.75 106.078 106.375 106.031 105.906 105.938C105.438 105.875 105.047 105.75 104.734 105.562C104.391 105.375 104.031 105.047 103.656 104.578C103.281 104.109 102.922 103.562 102.578 102.938C102.203 102.312 101.875 101.641 101.594 100.922C101.281 100.203 101.047 99.5156 100.891 98.8594L106.656 93.6562C106.906 95.1562 107.234 96.4844 107.641 97.6406C107.828 98.1406 108.031 98.6406 108.25 99.1406C108.469 99.6094 108.719 100.031 109 100.406C109.281 100.781 109.594 101.078 109.938 101.297C110.281 101.516 110.656 101.625 111.062 101.625C111.688 101.625 112.156 101.359 112.469 100.828C112.812 100.266 112.984 99.5781 112.984 98.7656C112.984 98.5156 112.859 97.9531 112.609 97.0781C112.391 96.1719 112.094 95.125 111.719 93.9375C111.344 92.75 110.953 91.4844 110.547 90.1406C110.141 88.7656 109.75 87.5 109.375 86.3438C109 85.1562 108.688 84.1406 108.438 83.2969C108.219 82.4531 108.109 81.9375 108.109 81.75C108.109 81.2188 108.203 80.5469 108.391 79.7344C108.609 78.9219 108.938 78.2188 109.375 77.625C109.531 77.4062 109.891 77.0156 110.453 76.4531C111.016 75.8906 111.672 75.2656 112.422 74.5781C113.203 73.8594 114.031 73.125 114.906 72.375C115.781 71.625 116.641 70.9375 117.484 70.3125C118.359 69.6875 119.141 69.1719 119.828 68.7656C120.547 68.3594 121.125 68.1562 121.562 68.1562ZM147.578 52.4062C147.203 53.2812 146.766 54.3281 146.266 55.5469C145.797 56.7656 145.281 58.0938 144.719 59.5312C144.156 60.9688 143.562 62.5 142.938 64.125C142.344 65.75 141.719 67.4062 141.062 69.0938L147.578 68.9062L146.734 71.1094L140.266 71.2031C139.203 74.0469 138.172 76.8906 137.172 79.7344C136.172 82.5469 135.266 85.1719 134.453 87.6094C133.672 90.0469 133.031 92.1875 132.531 94.0312C132.062 95.875 131.828 97.2344 131.828 98.1094C131.828 98.6406 131.891 99.0156 132.016 99.2344C132.141 99.4219 132.406 99.5156 132.812 99.5156C133.062 99.5156 133.578 99.2969 134.359 98.8594C135.172 98.3906 136.094 97.7344 137.125 96.8906C138.188 96.0469 139.281 95.0312 140.406 93.8438C141.562 92.6562 142.641 91.3438 143.641 89.9062L144.672 90.8906C143.578 92.4844 142.25 94.1562 140.688 95.9062C139.156 97.625 137.578 99.2188 135.953 100.688C134.328 102.125 132.734 103.312 131.172 104.25C129.641 105.188 128.328 105.656 127.234 105.656C127.078 105.656 126.781 105.578 126.344 105.422C125.906 105.297 125.562 105.094 125.312 104.812C125.125 104.562 124.922 104.031 124.703 103.219C124.453 102.406 124.328 101.344 124.328 100.031C124.328 99.125 124.578 97.6719 125.078 95.6719C125.547 93.6719 126.188 91.3594 127 88.7344C127.781 86.1094 128.672 83.2969 129.672 80.2969C130.703 77.2656 131.75 74.2656 132.812 71.2969L127.422 71.3906L128.172 69.375L133.469 69.2812L139.328 53.4375C139.922 53.2188 140.672 53.0312 141.578 52.875C142.484 52.7188 143.375 52.5781 144.25 52.4531C145.281 52.3281 146.328 52.2188 147.391 52.125C147.391 52.1875 147.422 52.2344 147.484 52.2656C147.547 52.2969 147.578 52.3438 147.578 52.4062ZM146.828 80.625C147.578 78.8125 148.5 77.1875 149.594 75.75C150.688 74.2812 151.891 73.0469 153.203 72.0469C154.516 71.0156 155.906 70.2344 157.375 69.7031C158.844 69.1719 160.328 68.9062 161.828 68.9062C162.484 68.9062 163.203 69.0938 163.984 69.4688C164.797 69.8125 165.547 70.2969 166.234 70.9219C166.922 71.5469 167.484 72.3125 167.922 73.2188C168.391 74.0938 168.625 75.0625 168.625 76.125C168.625 77.0312 168.516 78.0781 168.297 79.2656C168.078 80.4219 167.797 81.625 167.453 82.875C167.109 84.0938 166.734 85.3125 166.328 86.5312C165.922 87.75 165.531 88.875 165.156 89.9062C164.781 90.9062 164.438 91.7656 164.125 92.4844C163.844 93.2031 163.641 93.6875 163.516 93.9375C162.766 95.7812 161.844 97.4219 160.75 98.8594C159.656 100.297 158.453 101.531 157.141 102.562C155.828 103.562 154.438 104.328 152.969 104.859C151.531 105.391 150.062 105.656 148.562 105.656C147.906 105.656 147.188 105.484 146.406 105.141C145.594 104.797 144.844 104.312 144.156 103.688C143.469 103.031 142.906 102.266 142.469 101.391C142 100.516 141.766 99.5469 141.766 98.4844C141.766 97.5469 141.875 96.5 142.094 95.3438C142.312 94.1562 142.594 92.9531 142.938 91.7344C143.281 90.4844 143.656 89.25 144.062 88.0312C144.469 86.8125 144.859 85.7031 145.234 84.7031C145.609 83.7031 145.938 82.8438 146.219 82.125C146.5 81.375 146.703 80.875 146.828 80.625ZM159.812 71.4844C159.094 71.4844 158.312 72.125 157.469 73.4062C156.656 74.6562 155.828 76.2656 154.984 78.2344C154.172 80.2031 153.375 82.3594 152.594 84.7031C151.844 87.0156 151.172 89.25 150.578 91.4062C150.016 93.5625 149.547 95.4688 149.172 97.125C148.828 98.75 148.656 99.8438 148.656 100.406C148.656 101.312 148.828 101.969 149.172 102.375C149.516 102.781 149.984 102.984 150.578 102.984C151.109 102.984 151.672 102.625 152.266 101.906C152.859 101.156 153.469 100.172 154.094 98.9531C154.719 97.7344 155.328 96.3281 155.922 94.7344C156.547 93.1406 157.141 91.5 157.703 89.8125C158.266 88.0938 158.781 86.3906 159.25 84.7031C159.75 83.0156 160.172 81.4531 160.516 80.0156C160.891 78.5781 161.172 77.3438 161.359 76.3125C161.578 75.25 161.688 74.5156 161.688 74.1094C161.688 73.2031 161.516 72.5469 161.172 72.1406C160.828 71.7031 160.375 71.4844 159.812 71.4844ZM173.078 105C172.734 105.062 172.359 105.109 171.953 105.141C171.234 105.234 170.297 105.281 169.141 105.281C168.609 105.281 168.047 105.25 167.453 105.188C166.859 105.156 166.266 105.094 165.672 105L165.391 104.531C165.547 104.219 165.828 103.578 166.234 102.609C166.609 101.641 167.062 100.469 167.594 99.0938C168.094 97.7188 168.641 96.1875 169.234 94.5C169.828 92.8125 170.438 91.0938 171.062 89.3438C171.656 87.5938 172.234 85.875 172.797 84.1875C173.328 82.5 173.812 80.9531 174.25 79.5469C174.688 78.1406 175.031 76.9531 175.281 75.9844C175.531 74.9844 175.656 74.3125 175.656 73.9688C175.656 73.625 175.625 73.3594 175.562 73.1719C175.5 72.9844 175.438 72.8125 175.375 72.6562C175.281 72.5312 175.188 72.4062 175.094 72.2812V71.5781C175.812 71.1406 176.641 70.75 177.578 70.4062C178.547 70.0625 179.484 69.7812 180.391 69.5625C181.422 69.3125 182.5 69.0938 183.625 68.9062L183.859 69.1875C183.859 69.4688 183.781 69.9062 183.625 70.5C183.5 71.0938 183.328 71.7656 183.109 72.5156C182.891 73.2344 182.656 73.9844 182.406 74.7656C182.156 75.5469 181.906 76.2812 181.656 76.9688C181.438 77.6562 181.234 78.25 181.047 78.75C180.891 79.25 180.797 79.5781 180.766 79.7344C180.078 81.5781 179.406 83.5156 178.75 85.5469C178.094 87.5781 177.453 89.6094 176.828 91.6406C177.547 89.8594 178.297 88.0625 179.078 86.25C179.891 84.4062 180.703 82.6406 181.516 80.9531C182.328 79.2344 183.156 77.625 184 76.125C184.875 74.5938 185.719 73.2812 186.531 72.1875C187.344 71.0625 188.141 70.1719 188.922 69.5156C189.734 68.8594 190.5 68.5312 191.219 68.5312C191.438 68.5312 191.766 68.625 192.203 68.8125C192.641 68.9688 193.094 69.2031 193.562 69.5156C194.031 69.8281 194.484 70.2188 194.922 70.6875C195.391 71.125 195.766 71.625 196.047 72.1875C196.172 72.375 196.062 72.9062 195.719 73.7812C195.375 74.625 194.812 75.6406 194.031 76.8281C193.25 77.9844 192.266 79.2188 191.078 80.5312C189.891 81.8125 188.5 83 186.906 84.0938L185.734 83.4844C186.234 82.4531 186.625 81.5781 186.906 80.8594C187.219 80.1094 187.453 79.4688 187.609 78.9375C187.766 78.375 187.859 77.8906 187.891 77.4844C187.953 77.0781 187.984 76.6875 187.984 76.3125C187.984 75.8438 187.844 75.6094 187.562 75.6094C187.125 75.6094 186.562 76.0469 185.875 76.9219C185.219 77.7656 184.484 78.9219 183.672 80.3906C182.891 81.8594 182.047 83.5781 181.141 85.5469C180.266 87.4844 179.359 89.5469 178.422 91.7344C177.516 93.8906 176.594 96.1094 175.656 98.3906C174.75 100.672 173.891 102.875 173.078 105ZM196.281 105.656C195.594 105.656 194.906 105.438 194.219 105C193.531 104.531 192.906 103.953 192.344 103.266C191.781 102.547 191.328 101.766 190.984 100.922C190.609 100.078 190.422 99.2656 190.422 98.4844C190.422 97.5469 190.547 96.4844 190.797 95.2969C191.016 94.1094 191.312 92.875 191.688 91.5938C192.031 90.3125 192.422 89.0469 192.859 87.7969C193.297 86.5469 193.719 85.4062 194.125 84.375C194.5 83.3125 194.844 82.4062 195.156 81.6562C195.438 80.9062 195.641 80.4062 195.766 80.1562C196.391 78.6562 197.359 77.2031 198.672 75.7969C200.016 74.3906 201.469 73.1406 203.031 72.0469C204.625 70.9531 206.219 70.0781 207.812 69.4219C209.438 68.7656 210.859 68.4375 212.078 68.4375C213.078 68.4375 213.891 68.9844 214.516 70.0781C215.141 71.1719 215.453 72.5469 215.453 74.2031C215.453 75.0469 215.25 75.875 214.844 76.6875C214.469 77.5 213.969 78.2656 213.344 78.9844C212.75 79.7031 212.094 80.375 211.375 81C210.688 81.625 210.031 82.1719 209.406 82.6406L199.609 90.1406C199.047 92.2656 198.578 94.1562 198.203 95.8125C197.859 97.4375 197.688 98.5469 197.688 99.1406C197.688 100.047 197.812 100.734 198.062 101.203C198.312 101.672 198.828 101.906 199.609 101.906C201.266 101.906 202.984 101.094 204.766 99.4688C206.547 97.8125 208.281 95.1719 209.969 91.5469L211.328 92.4375C210.484 94.4062 209.5 96.2031 208.375 97.8281C207.281 99.4531 206.094 100.844 204.812 102C203.531 103.156 202.156 104.062 200.688 104.719C199.25 105.344 197.781 105.656 196.281 105.656ZM208.656 71.1094C208.031 71.1094 207.359 71.5938 206.641 72.5625C205.922 73.5312 205.203 74.7969 204.484 76.3594C203.766 77.8906 203.062 79.6406 202.375 81.6094C201.688 83.5469 201.062 85.4844 200.5 87.4219L208.469 81.0938C208.844 79.75 209.188 78.4375 209.5 77.1562C209.812 75.8438 209.969 74.8594 209.969 74.2031C209.969 73.8594 209.938 73.5156 209.875 73.1719C209.844 72.7969 209.781 72.4531 209.688 72.1406C209.594 71.8281 209.453 71.5781 209.266 71.3906C209.109 71.2031 208.906 71.1094 208.656 71.1094Z" fill="black"/>
</g>
</svg>
